<svg width="170" height="192" viewBox="0 0 170 192" fill="none" xmlns="http://www.w3.org/2000/svg">
<g clip-path="url(#clip0_1_406)">
<path d="M132.93 74.1C112.46 74.1 95.88 57.52 95.88 37.05C95.88 16.58 112.47 0 132.93 0C153.39 0 169.98 16.58 169.98 37.05C169.98 57.52 153.39 74.1 132.93 74.1Z" fill="#133D60"/>
<path d="M117.27 132.64H31.22C27.82 132.64 25.07 135.39 25.07 138.79C25.07 142.19 27.82 144.95 31.22 144.95H117.27C120.67 144.95 123.43 142.2 123.43 138.79C123.43 135.38 120.68 132.64 117.27 132.64ZM99.1 89.6H31.25C27.85 89.6 25.1 92.35 25.1 95.75C25.1 99.15 27.85 101.9 31.25 101.9H99.1C102.5 101.9 105.25 99.15 105.25 95.75C105.25 92.35 102.49 89.6 99.1 89.6ZM66.95 46.58H31.25C27.85 46.58 25.1 49.33 25.1 52.73C25.1 56.13 27.85 58.88 31.25 58.88H66.95C70.35 58.88 73.1 56.13 73.1 52.73C73.1 49.33 70.34 46.58 66.95 46.58ZM124.13 191.5H24.35C10.9 191.5 0 180.6 0 167.15V24.36C0 10.92 10.9 0.0200195 24.35 0.0200195H103.6C92.67 8.69002 85.63 22.06 85.63 37.07C85.63 63.15 106.85 84.38 132.94 84.38C138.39 84.38 143.59 83.41 148.47 81.7V167.16C148.47 180.61 137.56 191.51 124.12 191.51L124.13 191.5Z" fill="#133D60"/>
<path d="M134.38 13.5899L140.67 26.1699C140.85 26.5299 141.2 26.7799 141.6 26.8399L155.51 28.9399C156.52 29.0899 156.93 30.3399 156.2 31.0599L146.18 40.9299C145.89 41.2099 145.76 41.6199 145.83 42.0199L148.13 55.8899C148.3 56.8999 147.24 57.6699 146.33 57.1999L133.85 50.7199C133.49 50.5299 133.06 50.5299 132.7 50.7199L120.22 57.1999C119.31 57.6699 118.25 56.8999 118.42 55.8899L120.72 42.0199C120.79 41.6199 120.65 41.2099 120.37 40.9299L110.35 31.0599C109.62 30.3399 110.02 29.0899 111.04 28.9399L124.94 26.8399C125.34 26.7799 125.69 26.5299 125.87 26.1699L132.16 13.5899C132.62 12.6699 133.93 12.6699 134.39 13.5899" fill="#FDC200"/>
</g>
<defs>
<clipPath id="clip0_1_406">
<rect width="169.99" height="191.51" fill="white"/>
</clipPath>
</defs>
</svg>
